PathFileType	4	(X/Y/Z)	E:\Qualisys_Data\Carbon_Farble_Plate\Data\Amateur_Runner\S2\T2\S2T2V22_c3d.trc
DataRate	CameraRate	NumFrames	NumMarkers	Units	OrigDataRate	OrigDataStartFrame	OrigNumFrames
200.000000	200.000000	4	39	mm	200.000000	74	298
Frame#	Time	LSHO			RSHO			LICST			RICST			LASIS			LHEEL			RASIS			LTROC			RTROC			SACR			LTH1			LSK4			LTH2			LTH3			RHM5			LSK2			LTH4			RTH1			LTOE			RTH2			RTH3			RTH4			LLEP			RLEP			LSK1			LSK3			RSK1			LHM5			RSK2			LFT1			RSK3			RSK4			LLME			RLME			RTOE			RHEEL			RFT1			RFT2			LFT2			
		X1	Y1	Z1	X2	Y2	Z2	X3	Y3	Z3	X4	Y4	Z4	X5	Y5	Z5	X6	Y6	Z6	X7	Y7	Z7	X8	Y8	Z8	X9	Y9	Z9	X10	Y10	Z10	X11	Y11	Z11	X12	Y12	Z12	X13	Y13	Z13	X14	Y14	Z14	X15	Y15	Z15	X16	Y16	Z16	X17	Y17	Z17	X18	Y18	Z18	X19	Y19	Z19	X20	Y20	Z20	X21	Y21	Z21	X22	Y22	Z22	X23	Y23	Z23	X24	Y24	Z24	X25	Y25	Z25	X26	Y26	Z26	X27	Y27	Z27	X28	Y28	Z28	X29	Y29	Z29	X30	Y30	Z30	X31	Y31	Z31	X32	Y32	Z32	X33	Y33	Z33	X34	Y34	Z34	X35	Y35	Z35	X36	Y36	Z36	X37	Y37	Z37	X38	Y38	Z38	X39	Y39	Z39	

75	0.37	-1563.102661132812	1502.173706054688	-443.0152282714844	-1465.524658203125	1485.031982421875	-168.3098449707031	-1551.564453125	1032.243896484375	-435.6027221679688	-1518.2705078125	1018.099060058594	-139.0345306396484	-1494.972045898438	982.8572998046876	-417.6819152832031	-1358.842651367188	104.7905044555664	-320.1015014648438	-1468.275024414062	963.622314453125	-164.0223846435547	-1613.828247070312	909.41064453125	-439.4985046386719	-1631.715454101562	940.6477661132812	-128.9488372802734	-1628.23828125	1070.575561523438	-274.0148315429688	-1411.7431640625	695.7579345703125	-453.7111511230469	-1395.114379882812	317.3458862304688	-416.1874389648438	-1490.751953125	662.5553588867188	-453.6028442382812	-1374.398803710938	604.3290405273438	-425.1194152832031	-2212.822509765625	384.1775817871094	-150.6086578369141	-1411.740356445312	414.4850769042969	-429.8489379882812	-1453.005737304688	573.814208984375	-421.5876770019531	-1616.516967773438	660.3890991210938	-126.5858001708984	-1137.24169921875	214.1735534667969	-363.2357482910156	-1684.738647460938	696.1907958984375	-123.6190185546875	-1660.64013671875	569.9853515625	-136.7295989990234	-1730.971069335938	610.4581909179688	-141.8898010253906	-1393.322143554688	550.3305053710938	-415.1784362792969	-1730.164672851562	567.8330688476562	-134.1733856201172	-1334.405639648438	428.6193237304688	-418.4849243164062	-1317.272827148438	330.4920349121094	-408.1115112304688	-1830.745239257812	501.0520629882812	-128.588134765625	-1181.743286132812	165.3432159423828	-413.307861328125	-1847.1904296875	579.8983764648438	-128.7964019775391	-1333.610229492188	85.1898193359375	-297.907470703125	-1930.57373046875	479.9230041503906	-137.4914855957031	-1943.75	557.2666015625	-144.3754272460938	-1311.818969726562	146.4924163818359	-383.4959716796875	-2121.988525390625	480.22412109375	-172.2305450439453	-2204.83642578125	303.5531311035156	-194.9426574707031	-2105.40673828125	531.4030151367188	-235.3630981445312	-2132.775634765625	518.0545043945312	-270.2552795410156	-2140.779541015625	543.7492065429688	-218.8560333251953	-1341.698486328125	74.76068115234375	-350.1956787109375
76	0.375	-1541.181518554688	1498.140747070312	-444.6629943847656	-1443.578857421875	1482.514526367188	-169.2320251464844	-1531.472534179688	1029.632690429688	-436.5040588378906	-1496.914794921875	1015.190673828125	-138.9186706542969	-1473.96044921875	980.3583374023438	-417.2653198242188	-1340.2119140625	100.6884765625	-317.3551940917969	-1446.288696289062	961.4929809570312	-163.9128112792969	-1592.877197265625	906.1947021484376	-439.7273864746094	-1609.562622070312	936.6069946289062	-128.7775115966797	-1606.72412109375	1067.641357421875	-273.541259765625	-1392.53125	690.62451171875	-454.38037109375	-1376.432006835938	313.4774169921875	-415.4600219726562	-1471.210083007812	657.3057250976562	-453.9950256347656	-1354.695068359375	600.4047241210938	-423.9927673339844	-2189.558349609375	396.3042297363281	-151.6553955078125	-1392.016235351562	410.4952087402344	-429.3523559570312	-1433.931640625	569.4863891601562	-421.1445617675781	-1590.039672851562	656.52734375	-125.8456497192383	-1119.053588867188	210.3376312255859	-363.2083740234375	-1659.547485351562	690.8687744140625	-123.6447982788086	-1633.330078125	565.1693725585938	-136.5852355957031	-1704.86279296875	604.8876953125	-141.715576171875	-1372.636352539062	546.8287353515625	-415.3895568847656	-1702.710693359375	562.5775146484375	-133.3311614990234	-1314.914672851562	424.676025390625	-417.7731628417969	-1298.24462890625	326.5036315917969	-407.196044921875	-1804.909423828125	498.6564636230469	-128.8391265869141	-1162.826538085938	160.8743133544922	-412.3024597167969	-1818.08544921875	577.818603515625	-128.5862731933594	-1314.716674804688	81.44562530517578	-295.6474914550781	-1905.866333007812	480.8774108886719	-138.4409942626953	-1915.571655273438	558.7694702148438	-144.5813140869141	-1293.705200195312	142.4160461425781	-381.0354309082031	-2095.8095703125	489.0701599121094	-173.1993103027344	-2184.64453125	313.5925598144531	-195.6869201660156	-2076.893310546875	539.4410400390625	-238.4121704101562	-2104.884765625	526.26611328125	-271.3186645507812	-2112.005615234375	552.9999389648438	-220.3990173339844	-1323.129272460938	71.2649154663086	-347.8212585449219
77	0.38	-1519.690307617188	1493.8203125	-446.3336181640625	-1422.53466796875	1479.31640625	-170.1083679199219	-1510.775512695312	1026.866333007812	-436.4078063964844	-1475.07177734375	1012.116088867188	-139.1661071777344	-1452.702392578125	977.6915283203124	-417.4690246582031	-1322.927856445312	97.00107574462892	-314.2265014648438	-1424.433471679688	959.0006713867188	-164.1516418457031	-1572.23291015625	902.8126220703124	-439.9381408691406	-1586.827026367188	932.3447875976562	-128.4682006835938	-1585.813354492188	1064.544555664062	-273.1519470214844	-1373.323364257812	686.51318359375	-455.0144653320312	-1357.293579101562	309.5879821777344	-413.7287292480469	-1451.295166015625	652.8182373046875	-453.5863952636719	-1335.4287109375	597.1364135742188	-422.20556640625	-2164.572998046875	407.3651428222656	-151.7708435058594	-1372.685668945312	406.5679016113281	-428.602783203125	-1413.989379882812	565.4149780273438	-419.5719604492188	-1563.937744140625	651.79248046875	-125.6459503173828	-1102.123046875	205.4601898193359	-363.3326416015625	-1633.902221679688	685.3868408203125	-123.4083633422852	-1605.166381835938	560.4572143554688	-135.681884765625	-1676.473999023438	597.9832153320312	-140.6692657470703	-1352.838745117188	543.484130859375	-414.7396850585938	-1675.330444335938	556.1221923828125	-133.0560760498047	-1295.934204101562	420.4088439941406	-416.5163269042969	-1279.885864257812	322.0421142578125	-405.7855224609375	-1777.860473632812	495.7436218261719	-128.8991241455078	-1146.915771484375	155.6635437011719	-411.5435791015625	-1789.293212890625	575.7380981445312	-128.8570709228516	-1297.10888671875	78.34940338134766	-292.1069641113281	-1879.580688476562	481.6447143554688	-138.0035095214844	-1886.815307617188	560.2615356445312	-144.7231750488281	-1277.21875	137.8173065185547	-379.4910888671875	-2068.824462890625	497.3287048339844	-174.6673889160156	-2161.908447265625	325.1214904785156	-195.1003570556641	-2048.714111328125	545.9907836914062	-239.9877777099609	-2076.92041015625	534.3303833007812	-273.0474243164062	-2083.506103515625	560.9828491210938	-222.739501953125	-1306.755859375	66.75071716308594	-344.1437683105469
78	0.385	-1498.571411132812	1489.511108398438	-448.1653442382812	-1400.97216796875	1476.17138671875	-171.5088500976562	-1490.192138671875	1023.181274414062	-435.7361145019531	-1453.936645507812	1008.35498046875	-138.8739929199219	-1431.93798828125	974.4239501953124	-417.884033203125	-1306.658081054688	93.1808624267578	-311.3439636230469	-1402.895385742188	955.9244995117188	-164.3109741210938	-1550.999145507812	898.8473510742188	-440.3027038574219	-1564.637573242188	928.163330078125	-128.1939392089844	-1564.314575195312	1060.8125	-273.0872497558594	-1353.218872070312	682.5818481445312	-454.4076843261719	-1339.455688476562	305.5690307617188	-412.6552124023438	-1431.404663085938	649.1738891601562	-452.8777465820312	-1313.763671875	593.4313354492188	-420.0119323730469	-2138.936767578125	418.4048767089844	-152.2090301513672	-1351.038452148438	401.8363342285156	-426.5052795410156	-1393.595703125	562.0078125	-417.4524841308594	-1537.758178710938	646.92919921875	-125.6017684936523	-1085.817626953125	199.8516540527344	-363.6053771972656	-1608.23388671875	679.43408203125	-123.2942504882812	-1577.68359375	554.9185791015625	-134.7704925537109	-1650.137329101562	591.2963256835938	-140.3988952636719	-1330.70556640625	539.4171142578125	-413.1916198730469	-1647.166870117188	549.7293701171875	-132.1292419433594	-1276.619873046875	415.0120544433594	-414.3223876953125	-1262.067626953125	317.2406616210938	-404.1243896484375	-1751.656494140625	492.139892578125	-128.8352508544922	-1131.318237304688	149.0339965820312	-411.1346130371094	-1759.092529296875	573.325439453125	-128.5176696777344	-1281.13671875	74.81819915771484	-288.7944030761719	-1853.617431640625	481.8468322753906	-139.3571319580078	-1857.953247070312	561.0502319335938	-144.8573608398438	-1261.696899414062	133.0106201171875	-377.691650390625	-2040.75	504.8118591308594	-175.8605651855469	-2138.736572265625	336.5049133300781	-195.7851257324219	-2019.009399414062	552.862548828125	-241.5997924804688	-2047.776611328125	541.3546752929688	-274.8629760742188	-2052.8828125	568.724853515625	-223.7529907226562	-1291.964721679688	62.11371612548828	-341.5128479003906
